<svg width="340" height="613" viewBox="0 0 340 613" fill="none" xmlns="http://www.w3.org/2000/svg">
<g clip-path="url(#clip0_303_854)">
<g opacity="0.87">
<path d="M232.88 170.96C233.432 170.96 233.88 170.512 233.88 169.96C233.88 169.408 233.432 168.96 232.88 168.96C232.328 168.96 231.88 169.408 231.88 169.96C231.88 170.512 232.328 170.96 232.88 170.96Z" fill="white" fill-opacity="0.4"/>
</g>
<g opacity="0.98">
<path d="M62.56 102.1C63.1123 102.1 63.56 101.652 63.56 101.1C63.56 100.548 63.1123 100.1 62.56 100.1C62.0077 100.1 61.56 100.548 61.56 101.1C61.56 101.652 62.0077 102.1 62.56 102.1Z" fill="white" fill-opacity="0.4"/>
</g>
<path d="M25.44 20.6499C25.9923 20.6499 26.44 20.2022 26.44 19.6499C26.44 19.0976 25.9923 18.6499 25.44 18.6499C24.8877 18.6499 24.44 19.0976 24.44 19.6499C24.44 20.2022 24.8877 20.6499 25.44 20.6499Z" fill="white" fill-opacity="0.4"/>
<g opacity="0.91">
<path d="M35.51 19.3301C36.0623 19.3301 36.51 18.8824 36.51 18.3301C36.51 17.7778 36.0623 17.3301 35.51 17.3301C34.9577 17.3301 34.51 17.7778 34.51 18.3301C34.51 18.8824 34.9577 19.3301 35.51 19.3301Z" fill="white" fill-opacity="0.4"/>
</g>
<g opacity="0.8">
<path d="M307.32 84.8799C307.872 84.8799 308.32 84.4322 308.32 83.8799C308.32 83.3276 307.872 82.8799 307.32 82.8799C306.768 82.8799 306.32 83.3276 306.32 83.8799C306.32 84.4322 306.768 84.8799 307.32 84.8799Z" fill="white" fill-opacity="0.4"/>
</g>
<g opacity="0.79">
<path d="M312.14 100.75C312.692 100.75 313.14 100.302 313.14 99.75C313.14 99.1977 312.692 98.75 312.14 98.75C311.588 98.75 311.14 99.1977 311.14 99.75C311.14 100.302 311.588 100.75 312.14 100.75Z" fill="white" fill-opacity="0.4"/>
</g>
<g opacity="0.33">
<path d="M81.55 160.59C82.1023 160.59 82.55 160.142 82.55 159.59C82.55 159.038 82.1023 158.59 81.55 158.59C80.9977 158.59 80.55 159.038 80.55 159.59C80.55 160.142 80.9977 160.59 81.55 160.59Z" fill="white" fill-opacity="0.4"/>
</g>
<g opacity="0.95">
<path d="M34.99 295.75C35.5423 295.75 35.99 295.302 35.99 294.75C35.99 294.198 35.5423 293.75 34.99 293.75C34.4377 293.75 33.99 294.198 33.99 294.75C33.99 295.302 34.4377 295.75 34.99 295.75Z" fill="white" fill-opacity="0.4"/>
</g>
<g opacity="0.92">
<path d="M149.45 18.02C150.002 18.02 150.45 17.5723 150.45 17.02C150.45 16.4677 150.002 16.02 149.45 16.02C148.898 16.02 148.45 16.4677 148.45 17.02C148.45 17.5723 148.898 18.02 149.45 18.02Z" fill="white" fill-opacity="0.4"/>
</g>
<g opacity="0.79">
<path d="M250.39 34.99C250.942 34.99 251.39 34.5423 251.39 33.99C251.39 33.4377 250.942 32.99 250.39 32.99C249.838 32.99 249.39 33.4377 249.39 33.99C249.39 34.5423 249.838 34.99 250.39 34.99Z" fill="white" fill-opacity="0.4"/>
</g>
<g opacity="0.41">
<path d="M338.98 139.27C339.532 139.27 339.98 138.822 339.98 138.27C339.98 137.718 339.532 137.27 338.98 137.27C338.428 137.27 337.98 137.718 337.98 138.27C337.98 138.822 338.428 139.27 338.98 139.27Z" fill="white" fill-opacity="0.4"/>
</g>
<g opacity="0.86">
<path d="M333.64 31.6499C334.192 31.6499 334.64 31.2022 334.64 30.6499C334.64 30.0976 334.192 29.6499 333.64 29.6499C333.088 29.6499 332.64 30.0976 332.64 30.6499C332.64 31.2022 333.088 31.6499 333.64 31.6499Z" fill="white" fill-opacity="0.4"/>
</g>
<g opacity="0.45">
<path d="M293.73 5.58008C294.282 5.58008 294.73 5.13236 294.73 4.58008C294.73 4.02779 294.282 3.58008 293.73 3.58008C293.178 3.58008 292.73 4.02779 292.73 4.58008C292.73 5.13236 293.178 5.58008 293.73 5.58008Z" fill="white" fill-opacity="0.4"/>
</g>
<g opacity="0.79">
<path d="M12.85 2C13.4023 2 13.85 1.55228 13.85 1C13.85 0.447715 13.4023 0 12.85 0C12.2977 0 11.85 0.447715 11.85 1C11.85 1.55228 12.2977 2 12.85 2Z" fill="white" fill-opacity="0.4"/>
</g>
<g opacity="0.64">
<path d="M1 103.21C1.55228 103.21 2 102.762 2 102.21C2 101.658 1.55228 101.21 1 101.21C0.447715 101.21 0 101.658 0 102.21C0 102.762 0.447715 103.21 1 103.21Z" fill="white" fill-opacity="0.4"/>
</g>
<g opacity="0.94">
<path d="M2.09 217.62C2.64228 217.62 3.09 217.172 3.09 216.62C3.09 216.068 2.64228 215.62 2.09 215.62C1.53772 215.62 1.09 216.068 1.09 216.62C1.09 217.172 1.53772 217.62 2.09 217.62Z" fill="white" fill-opacity="0.4"/>
</g>
<g opacity="0.8">
<path d="M20.43 279.42C20.9823 279.42 21.43 278.972 21.43 278.42C21.43 277.868 20.9823 277.42 20.43 277.42C19.8777 277.42 19.43 277.868 19.43 278.42C19.43 278.972 19.8777 279.42 20.43 279.42Z" fill="white" fill-opacity="0.4"/>
</g>
<g opacity="0.76">
<path d="M22.98 199.86C23.5323 199.86 23.98 199.412 23.98 198.86C23.98 198.308 23.5323 197.86 22.98 197.86C22.4277 197.86 21.98 198.308 21.98 198.86C21.98 199.412 22.4277 199.86 22.98 199.86Z" fill="white" fill-opacity="0.4"/>
</g>
<g opacity="0.26">
<path d="M146.03 239.13C146.582 239.13 147.03 238.682 147.03 238.13C147.03 237.578 146.582 237.13 146.03 237.13C145.478 237.13 145.03 237.578 145.03 238.13C145.03 238.682 145.478 239.13 146.03 239.13Z" fill="white" fill-opacity="0.4"/>
</g>
<g opacity="0.53">
<path d="M302.27 215.78C302.822 215.78 303.27 215.332 303.27 214.78C303.27 214.228 302.822 213.78 302.27 213.78C301.718 213.78 301.27 214.228 301.27 214.78C301.27 215.332 301.718 215.78 302.27 215.78Z" fill="white" fill-opacity="0.4"/>
</g>
<g opacity="0.55">
<path d="M320.64 181.28C321.192 181.28 321.64 180.832 321.64 180.28C321.64 179.728 321.192 179.28 320.64 179.28C320.088 179.28 319.64 179.728 319.64 180.28C319.64 180.832 320.088 181.28 320.64 181.28Z" fill="white" fill-opacity="0.4"/>
</g>
<g opacity="0.64">
<path d="M23.08 357.12C23.6323 357.12 24.08 356.672 24.08 356.12C24.08 355.568 23.6323 355.12 23.08 355.12C22.5277 355.12 22.08 355.568 22.08 356.12C22.08 356.672 22.5277 357.12 23.08 357.12Z" fill="white" fill-opacity="0.4"/>
</g>
<g opacity="0.82">
<path d="M7.96 458.08C8.51228 458.08 8.96 457.632 8.96 457.08C8.96 456.528 8.51228 456.08 7.96 456.08C7.40771 456.08 6.96 456.528 6.96 457.08C6.96 457.632 7.40771 458.08 7.96 458.08Z" fill="white" fill-opacity="0.4"/>
</g>
<g opacity="0.59">
<path d="M306.07 323.24C306.622 323.24 307.07 322.792 307.07 322.24C307.07 321.688 306.622 321.24 306.07 321.24C305.518 321.24 305.07 321.688 305.07 322.24C305.07 322.792 305.518 323.24 306.07 323.24Z" fill="white" fill-opacity="0.4"/>
</g>
<g opacity="0.89">
<path d="M30.96 310.58C31.5123 310.58 31.96 310.132 31.96 309.58C31.96 309.028 31.5123 308.58 30.96 308.58C30.4077 308.58 29.96 309.028 29.96 309.58C29.96 310.132 30.4077 310.58 30.96 310.58Z" fill="white" fill-opacity="0.4"/>
</g>
<g opacity="0.94">
<path d="M310.93 313.24C311.482 313.24 311.93 312.792 311.93 312.24C311.93 311.688 311.482 311.24 310.93 311.24C310.378 311.24 309.93 311.688 309.93 312.24C309.93 312.792 310.378 313.24 310.93 313.24Z" fill="white" fill-opacity="0.4"/>
</g>
<g opacity="0.95">
<path d="M225.18 371.32C225.732 371.32 226.18 370.872 226.18 370.32C226.18 369.768 225.732 369.32 225.18 369.32C224.628 369.32 224.18 369.768 224.18 370.32C224.18 370.872 224.628 371.32 225.18 371.32Z" fill="white" fill-opacity="0.4"/>
</g>
<g opacity="0.39">
<path d="M241.1 407.29C241.652 407.29 242.1 406.842 242.1 406.29C242.1 405.738 241.652 405.29 241.1 405.29C240.548 405.29 240.1 405.738 240.1 406.29C240.1 406.842 240.548 407.29 241.1 407.29Z" fill="white" fill-opacity="0.4"/>
</g>
<g opacity="0.87">
<path d="M312.2 400.84C312.752 400.84 313.2 400.392 313.2 399.84C313.2 399.288 312.752 398.84 312.2 398.84C311.648 398.84 311.2 399.288 311.2 399.84C311.2 400.392 311.648 400.84 312.2 400.84Z" fill="white" fill-opacity="0.4"/>
</g>
<g opacity="0.99">
<path d="M237.02 285.61C237.572 285.61 238.02 285.162 238.02 284.61C238.02 284.058 237.572 283.61 237.02 283.61C236.468 283.61 236.02 284.058 236.02 284.61C236.02 285.162 236.468 285.61 237.02 285.61Z" fill="white" fill-opacity="0.4"/>
</g>
<g opacity="0.87">
<path d="M253.28 269.67C253.832 269.67 254.28 269.222 254.28 268.67C254.28 268.118 253.832 267.67 253.28 267.67C252.728 267.67 252.28 268.118 252.28 268.67C252.28 269.222 252.728 269.67 253.28 269.67Z" fill="white" fill-opacity="0.4"/>
</g>
<g opacity="0.43">
<path d="M212.59 285.37C213.142 285.37 213.59 284.922 213.59 284.37C213.59 283.818 213.142 283.37 212.59 283.37C212.038 283.37 211.59 283.818 211.59 284.37C211.59 284.922 212.038 285.37 212.59 285.37Z" fill="white" fill-opacity="0.4"/>
</g>
<g opacity="0.98">
<path d="M135.99 327.66C136.542 327.66 136.99 327.212 136.99 326.66C136.99 326.108 136.542 325.66 135.99 325.66C135.438 325.66 134.99 326.108 134.99 326.66C134.99 327.212 135.438 327.66 135.99 327.66Z" fill="white" fill-opacity="0.4"/>
</g>
<g opacity="0.85">
<path d="M173.47 354.7C174.022 354.7 174.47 354.252 174.47 353.7C174.47 353.148 174.022 352.7 173.47 352.7C172.918 352.7 172.47 353.148 172.47 353.7C172.47 354.252 172.918 354.7 173.47 354.7Z" fill="white" fill-opacity="0.4"/>
</g>
<g opacity="0.99">
<path d="M212.63 425.85C213.182 425.85 213.63 425.402 213.63 424.85C213.63 424.298 213.182 423.85 212.63 423.85C212.078 423.85 211.63 424.298 211.63 424.85C211.63 425.402 212.078 425.85 212.63 425.85Z" fill="white" fill-opacity="0.4"/>
</g>
<g opacity="0.5">
<path d="M186.2 465.14C186.752 465.14 187.2 464.692 187.2 464.14C187.2 463.588 186.752 463.14 186.2 463.14C185.648 463.14 185.2 463.588 185.2 464.14C185.2 464.692 185.648 465.14 186.2 465.14Z" fill="white" fill-opacity="0.4"/>
</g>
<g opacity="0.48">
<path d="M140.69 483.24C141.242 483.24 141.69 482.792 141.69 482.24C141.69 481.688 141.242 481.24 140.69 481.24C140.138 481.24 139.69 481.688 139.69 482.24C139.69 482.792 140.138 483.24 140.69 483.24Z" fill="white" fill-opacity="0.4"/>
</g>
<g opacity="0.22">
<path d="M98.24 560.61C98.7923 560.61 99.24 560.162 99.24 559.61C99.24 559.058 98.7923 558.61 98.24 558.61C97.6877 558.61 97.24 559.058 97.24 559.61C97.24 560.162 97.6877 560.61 98.24 560.61Z" fill="white" fill-opacity="0.4"/>
</g>
<g opacity="0.71">
<path d="M178.84 574.83C179.392 574.83 179.84 574.382 179.84 573.83C179.84 573.278 179.392 572.83 178.84 572.83C178.288 572.83 177.84 573.278 177.84 573.83C177.84 574.382 178.288 574.83 178.84 574.83Z" fill="white" fill-opacity="0.4"/>
</g>
<g opacity="0.3">
<path d="M38.96 593.75C39.5123 593.75 39.96 593.302 39.96 592.75C39.96 592.198 39.5123 591.75 38.96 591.75C38.4077 591.75 37.96 592.198 37.96 592.75C37.96 593.302 38.4077 593.75 38.96 593.75Z" fill="white" fill-opacity="0.4"/>
</g>
<g opacity="0.76">
<path d="M153.69 605.49C154.242 605.49 154.69 605.042 154.69 604.49C154.69 603.938 154.242 603.49 153.69 603.49C153.138 603.49 152.69 603.938 152.69 604.49C152.69 605.042 153.138 605.49 153.69 605.49Z" fill="white" fill-opacity="0.4"/>
</g>
<g opacity="0.63">
<path d="M4.89 511.08C5.44228 511.08 5.89 510.632 5.89 510.08C5.89 509.528 5.44228 509.08 4.89 509.08C4.33771 509.08 3.89 509.528 3.89 510.08C3.89 510.632 4.33771 511.08 4.89 511.08Z" fill="white" fill-opacity="0.4"/>
</g>
<g opacity="0.9">
<path d="M25.86 535.3C26.4123 535.3 26.86 534.852 26.86 534.3C26.86 533.748 26.4123 533.3 25.86 533.3C25.3077 533.3 24.86 533.748 24.86 534.3C24.86 534.852 25.3077 535.3 25.86 535.3Z" fill="white" fill-opacity="0.4"/>
</g>
<g opacity="0.27">
<path d="M78.84 541.53C79.3923 541.53 79.84 541.082 79.84 540.53C79.84 539.978 79.3923 539.53 78.84 539.53C78.2877 539.53 77.84 539.978 77.84 540.53C77.84 541.082 78.2877 541.53 78.84 541.53Z" fill="white" fill-opacity="0.4"/>
</g>
<g opacity="0.73">
<path d="M61.58 558.68C62.1323 558.68 62.58 558.232 62.58 557.68C62.58 557.128 62.1323 556.68 61.58 556.68C61.0277 556.68 60.58 557.128 60.58 557.68C60.58 558.232 61.0277 558.68 61.58 558.68Z" fill="white" fill-opacity="0.4"/>
</g>
<g opacity="0.62">
<path d="M99.28 611.7C99.8323 611.7 100.28 611.252 100.28 610.7C100.28 610.148 99.8323 609.7 99.28 609.7C98.7277 609.7 98.28 610.148 98.28 610.7C98.28 611.252 98.7277 611.7 99.28 611.7Z" fill="white" fill-opacity="0.4"/>
</g>
<g opacity="0.7">
<path d="M308.6 577.71C309.152 577.71 309.6 577.262 309.6 576.71C309.6 576.158 309.152 575.71 308.6 575.71C308.048 575.71 307.6 576.158 307.6 576.71C307.6 577.262 308.048 577.71 308.6 577.71Z" fill="white" fill-opacity="0.4"/>
</g>
<g opacity="0.91">
<path d="M319.82 505.29C320.372 505.29 320.82 504.842 320.82 504.29C320.82 503.738 320.372 503.29 319.82 503.29C319.268 503.29 318.82 503.738 318.82 504.29C318.82 504.842 319.268 505.29 319.82 505.29Z" fill="white" fill-opacity="0.4"/>
</g>
<g opacity="0.28">
<path d="M285.22 553.06C285.772 553.06 286.22 552.612 286.22 552.06C286.22 551.508 285.772 551.06 285.22 551.06C284.668 551.06 284.22 551.508 284.22 552.06C284.22 552.612 284.668 553.06 285.22 553.06Z" fill="white" fill-opacity="0.4"/>
</g>
<g opacity="0.67">
<path d="M267.12 586.42C267.672 586.42 268.12 585.972 268.12 585.42C268.12 584.868 267.672 584.42 267.12 584.42C266.568 584.42 266.12 584.868 266.12 585.42C266.12 585.972 266.568 586.42 267.12 586.42Z" fill="white" fill-opacity="0.4"/>
</g>
<g opacity="0.89">
<path d="M261.37 590.05C261.922 590.05 262.37 589.602 262.37 589.05C262.37 588.498 261.922 588.05 261.37 588.05C260.818 588.05 260.37 588.498 260.37 589.05C260.37 589.602 260.818 590.05 261.37 590.05Z" fill="white" fill-opacity="0.4"/>
</g>
<path d="M255.22 211.08C255.772 211.08 256.22 210.632 256.22 210.08C256.22 209.528 255.772 209.08 255.22 209.08C254.668 209.08 254.22 209.528 254.22 210.08C254.22 210.632 254.668 211.08 255.22 211.08Z" fill="white" fill-opacity="0.4"/>
<g opacity="0.83">
<path d="M202.19 196.65C202.742 196.65 203.19 196.202 203.19 195.65C203.19 195.098 202.742 194.65 202.19 194.65C201.638 194.65 201.19 195.098 201.19 195.65C201.19 196.202 201.638 196.65 202.19 196.65Z" fill="white" fill-opacity="0.4"/>
</g>
<g opacity="0.55">
<path d="M197.32 84.71C197.872 84.71 198.32 84.2622 198.32 83.71C198.32 83.1577 197.872 82.71 197.32 82.71C196.768 82.71 196.32 83.1577 196.32 83.71C196.32 84.2622 196.768 84.71 197.32 84.71Z" fill="white" fill-opacity="0.4"/>
</g>
<g opacity="0.37">
<path d="M37.37 94.8999C37.9223 94.8999 38.37 94.4522 38.37 93.8999C38.37 93.3476 37.9223 92.8999 37.37 92.8999C36.8177 92.8999 36.37 93.3476 36.37 93.8999C36.37 94.4522 36.8177 94.8999 37.37 94.8999Z" fill="white" fill-opacity="0.4"/>
</g>
<g opacity="0.76">
<path d="M83.46 39.26C84.0123 39.26 84.46 38.8123 84.46 38.26C84.46 37.7077 84.0123 37.26 83.46 37.26C82.9077 37.26 82.46 37.7077 82.46 38.26C82.46 38.8123 82.9077 39.26 83.46 39.26Z" fill="white" fill-opacity="0.4"/>
</g>
<g opacity="0.6">
<path d="M231.6 4.72998C232.152 4.72998 232.6 4.28227 232.6 3.72998C232.6 3.1777 232.152 2.72998 231.6 2.72998C231.048 2.72998 230.6 3.1777 230.6 3.72998C230.6 4.28227 231.048 4.72998 231.6 4.72998Z" fill="white" fill-opacity="0.4"/>
</g>
<g opacity="0.48">
<path d="M80.9 374.47C81.4523 374.47 81.9 374.022 81.9 373.47C81.9 372.918 81.4523 372.47 80.9 372.47C80.3477 372.47 79.9 372.918 79.9 373.47C79.9 374.022 80.3477 374.47 80.9 374.47Z" fill="white" fill-opacity="0.4"/>
</g>
<g opacity="0.41">
<path d="M68.44 191.08C68.9923 191.08 69.44 190.632 69.44 190.08C69.44 189.528 68.9923 189.08 68.44 189.08C67.8877 189.08 67.44 189.528 67.44 190.08C67.44 190.632 67.8877 191.08 68.44 191.08Z" fill="white" fill-opacity="0.4"/>
</g>
<g opacity="0.59">
<path d="M120.59 313.68C121.142 313.68 121.59 313.232 121.59 312.68C121.59 312.128 121.142 311.68 120.59 311.68C120.038 311.68 119.59 312.128 119.59 312.68C119.59 313.232 120.038 313.68 120.59 313.68Z" fill="white" fill-opacity="0.4"/>
</g>
<g opacity="0.95">
<path d="M182.61 369.92C183.162 369.92 183.61 369.472 183.61 368.92C183.61 368.368 183.162 367.92 182.61 367.92C182.058 367.92 181.61 368.368 181.61 368.92C181.61 369.472 182.058 369.92 182.61 369.92Z" fill="white" fill-opacity="0.4"/>
</g>
<g opacity="0.77">
<path d="M296.37 425.28C296.922 425.28 297.37 424.832 297.37 424.28C297.37 423.728 296.922 423.28 296.37 423.28C295.818 423.28 295.37 423.728 295.37 424.28C295.37 424.832 295.818 425.28 296.37 425.28Z" fill="white" fill-opacity="0.4"/>
</g>
<g opacity="0.55">
<path d="M258.89 534.17C259.442 534.17 259.89 533.722 259.89 533.17C259.89 532.618 259.442 532.17 258.89 532.17C258.338 532.17 257.89 532.618 257.89 533.17C257.89 533.722 258.338 534.17 258.89 534.17Z" fill="white" fill-opacity="0.4"/>
</g>
<g opacity="0.93">
<path d="M42.58 452.54C43.1323 452.54 43.58 452.092 43.58 451.54C43.58 450.988 43.1323 450.54 42.58 450.54C42.0277 450.54 41.58 450.988 41.58 451.54C41.58 452.092 42.0277 452.54 42.58 452.54Z" fill="white" fill-opacity="0.4"/>
</g>
<g opacity="0.92">
<path d="M52.66 516.15C53.2123 516.15 53.66 515.702 53.66 515.15C53.66 514.598 53.2123 514.15 52.66 514.15C52.1077 514.15 51.66 514.598 51.66 515.15C51.66 515.702 52.1077 516.15 52.66 516.15Z" fill="white" fill-opacity="0.4"/>
</g>
<g opacity="0.81">
<path d="M164.42 497.41C164.972 497.41 165.42 496.962 165.42 496.41C165.42 495.858 164.972 495.41 164.42 495.41C163.868 495.41 163.42 495.858 163.42 496.41C163.42 496.962 163.868 497.41 164.42 497.41Z" fill="white" fill-opacity="0.4"/>
</g>
<g opacity="0.93">
<path d="M61.54 421.6C62.0923 421.6 62.54 421.152 62.54 420.6C62.54 420.048 62.0923 419.6 61.54 419.6C60.9877 419.6 60.54 420.048 60.54 420.6C60.54 421.152 60.9877 421.6 61.54 421.6Z" fill="white" fill-opacity="0.4"/>
</g>
<g opacity="0.98">
<path d="M177.16 380C177.712 380 178.16 379.552 178.16 379C178.16 378.448 177.712 378 177.16 378C176.608 378 176.16 378.448 176.16 379C176.16 379.552 176.608 380 177.16 380Z" fill="white" fill-opacity="0.4"/>
</g>
<g opacity="0.34">
<path d="M231.4 372.03C231.952 372.03 232.4 371.582 232.4 371.03C232.4 370.478 231.952 370.03 231.4 370.03C230.848 370.03 230.4 370.478 230.4 371.03C230.4 371.582 230.848 372.03 231.4 372.03Z" fill="white" fill-opacity="0.4"/>
</g>
<g opacity="0.36">
<path d="M39.3 482.18C39.8523 482.18 40.3 481.732 40.3 481.18C40.3 480.628 39.8523 480.18 39.3 480.18C38.7477 480.18 38.3 480.628 38.3 481.18C38.3 481.732 38.7477 482.18 39.3 482.18Z" fill="white" fill-opacity="0.4"/>
</g>
<g opacity="0.96">
<path d="M166.74 518.87C167.292 518.87 167.74 518.422 167.74 517.87C167.74 517.318 167.292 516.87 166.74 516.87C166.188 516.87 165.74 517.318 165.74 517.87C165.74 518.422 166.188 518.87 166.74 518.87Z" fill="white" fill-opacity="0.4"/>
</g>
<g opacity="0.74">
<path d="M45.52 606.97C46.0723 606.97 46.52 606.522 46.52 605.97C46.52 605.418 46.0723 604.97 45.52 604.97C44.9677 604.97 44.52 605.418 44.52 605.97C44.52 606.522 44.9677 606.97 45.52 606.97Z" fill="white" fill-opacity="0.4"/>
</g>
<g opacity="0.34">
<path d="M109.01 612.79C109.562 612.79 110.01 612.342 110.01 611.79C110.01 611.238 109.562 610.79 109.01 610.79C108.458 610.79 108.01 611.238 108.01 611.79C108.01 612.342 108.458 612.79 109.01 612.79Z" fill="white" fill-opacity="0.4"/>
</g>
<g opacity="0.96">
<path d="M315.89 606.53C316.442 606.53 316.89 606.082 316.89 605.53C316.89 604.978 316.442 604.53 315.89 604.53C315.338 604.53 314.89 604.978 314.89 605.53C314.89 606.082 315.338 606.53 315.89 606.53Z" fill="white" fill-opacity="0.4"/>
</g>
<g opacity="0.43">
<path d="M169.19 576.43C169.742 576.43 170.19 575.982 170.19 575.43C170.19 574.878 169.742 574.43 169.19 574.43C168.638 574.43 168.19 574.878 168.19 575.43C168.19 575.982 168.638 576.43 169.19 576.43Z" fill="white" fill-opacity="0.4"/>
</g>
<g opacity="0.89">
<path d="M263.97 129.59C264.522 129.59 264.97 129.142 264.97 128.59C264.97 128.038 264.522 127.59 263.97 127.59C263.418 127.59 262.97 128.038 262.97 128.59C262.97 129.142 263.418 129.59 263.97 129.59Z" fill="white" fill-opacity="0.4"/>
</g>
<g opacity="0.17">
<path d="M216.48 135.89C217.032 135.89 217.48 135.442 217.48 134.89C217.48 134.338 217.032 133.89 216.48 133.89C215.928 133.89 215.48 134.338 215.48 134.89C215.48 135.442 215.928 135.89 216.48 135.89Z" fill="white" fill-opacity="0.4"/>
</g>
<g opacity="0.42">
<path d="M227.67 91.3999C228.222 91.3999 228.67 90.9522 228.67 90.3999C228.67 89.8476 228.222 89.3999 227.67 89.3999C227.118 89.3999 226.67 89.8476 226.67 90.3999C226.67 90.9522 227.118 91.3999 227.67 91.3999Z" fill="white" fill-opacity="0.4"/>
</g>
<g opacity="0.63">
<path d="M94.71 213.19C95.2623 213.19 95.71 212.742 95.71 212.19C95.71 211.638 95.2623 211.19 94.71 211.19C94.1577 211.19 93.71 211.638 93.71 212.19C93.71 212.742 94.1577 213.19 94.71 213.19Z" fill="white" fill-opacity="0.4"/>
</g>
<g opacity="0.63">
<path d="M123.52 99.0601C124.072 99.0601 124.52 98.6123 124.52 98.0601C124.52 97.5078 124.072 97.0601 123.52 97.0601C122.968 97.0601 122.52 97.5078 122.52 98.0601C122.52 98.6123 122.968 99.0601 123.52 99.0601Z" fill="white" fill-opacity="0.4"/>
</g>
<g opacity="0.86">
<path d="M175.64 247.1C176.192 247.1 176.64 246.652 176.64 246.1C176.64 245.548 176.192 245.1 175.64 245.1C175.088 245.1 174.64 245.548 174.64 246.1C174.64 246.652 175.088 247.1 175.64 247.1Z" fill="white" fill-opacity="0.4"/>
</g>
<g opacity="0.25">
<path d="M157.2 222.94C157.752 222.94 158.2 222.492 158.2 221.94C158.2 221.388 157.752 220.94 157.2 220.94C156.648 220.94 156.2 221.388 156.2 221.94C156.2 222.492 156.648 222.94 157.2 222.94Z" fill="white" fill-opacity="0.4"/>
</g>
<g opacity="0.78">
<path d="M152.97 272.25C153.522 272.25 153.97 271.802 153.97 271.25C153.97 270.698 153.522 270.25 152.97 270.25C152.418 270.25 151.97 270.698 151.97 271.25C151.97 271.802 152.418 272.25 152.97 272.25Z" fill="white" fill-opacity="0.4"/>
</g>
<g opacity="0.37">
<path d="M53.48 275.42C54.0323 275.42 54.48 274.972 54.48 274.42C54.48 273.868 54.0323 273.42 53.48 273.42C52.9277 273.42 52.48 273.868 52.48 274.42C52.48 274.972 52.9277 275.42 53.48 275.42Z" fill="white" fill-opacity="0.4"/>
</g>
<g opacity="0.93">
<path d="M251.25 317.91C251.802 317.91 252.25 317.462 252.25 316.91C252.25 316.358 251.802 315.91 251.25 315.91C250.698 315.91 250.25 316.358 250.25 316.91C250.25 317.462 250.698 317.91 251.25 317.91Z" fill="white" fill-opacity="0.4"/>
</g>
<g opacity="0.35">
<path d="M316.38 355.99C316.932 355.99 317.38 355.542 317.38 354.99C317.38 354.438 316.932 353.99 316.38 353.99C315.828 353.99 315.38 354.438 315.38 354.99C315.38 355.542 315.828 355.99 316.38 355.99Z" fill="white" fill-opacity="0.4"/>
</g>
<g opacity="0.77">
<path d="M317.54 365.23C318.092 365.23 318.54 364.782 318.54 364.23C318.54 363.678 318.092 363.23 317.54 363.23C316.988 363.23 316.54 363.678 316.54 364.23C316.54 364.782 316.988 365.23 317.54 365.23Z" fill="white" fill-opacity="0.4"/>
</g>
<g opacity="0.86">
<path d="M85.81 352.39C86.3623 352.39 86.81 351.942 86.81 351.39C86.81 350.838 86.3623 350.39 85.81 350.39C85.2577 350.39 84.81 350.838 84.81 351.39C84.81 351.942 85.2577 352.39 85.81 352.39Z" fill="white" fill-opacity="0.4"/>
</g>
<g opacity="0.9">
<path d="M90.1 383.24C90.6523 383.24 91.1 382.792 91.1 382.24C91.1 381.688 90.6523 381.24 90.1 381.24C89.5477 381.24 89.1 381.688 89.1 382.24C89.1 382.792 89.5477 383.24 90.1 383.24Z" fill="white" fill-opacity="0.4"/>
</g>
<g opacity="0.96">
<path d="M117.86 419.48C118.412 419.48 118.86 419.032 118.86 418.48C118.86 417.928 118.412 417.48 117.86 417.48C117.308 417.48 116.86 417.928 116.86 418.48C116.86 419.032 117.308 419.48 117.86 419.48Z" fill="white" fill-opacity="0.4"/>
</g>
<g opacity="0.98">
<path d="M66.46 485.39C67.0123 485.39 67.46 484.942 67.46 484.39C67.46 483.838 67.0123 483.39 66.46 483.39C65.9077 483.39 65.46 483.838 65.46 484.39C65.46 484.942 65.9077 485.39 66.46 485.39Z" fill="white" fill-opacity="0.4"/>
</g>
</g>
<defs>
<clipPath id="clip0_303_854">
<rect width="339.98" height="612.79" fill="white"/>
</clipPath>
</defs>
</svg>
